<?xml version="1.0" standalone="no"?>
<!DOCTYPE svg PUBLIC "-//W3C//DTD SVG 20010904//EN"
 "http://www.w3.org/TR/2001/REC-SVG-20010904/DTD/svg10.dtd">
<svg version="1.0" xmlns="http://www.w3.org/2000/svg"
 width="640.000000pt" height="640.000000pt" viewBox="0 0 640.000000 640.000000"
 preserveAspectRatio="xMidYMid meet">

<rect width="100%" height="100%" fill="white" rx="50" ry="50"/>
<g transform="translate(0.000000,640.000000) scale(0.100000,-0.100000)"
fill="#000000" stroke="none">
<path d="M2587 5773 c-4 -3 -7 -260 -7 -570 l0 -564 -406 406 -407 407 -205
-204 c-289 -285 -563 -560 -586 -587 l-20 -22 399 -399 400 -400 -558 0 -557
0 0 -585 0 -586 532 1 c293 0 541 0 551 0 10 0 -133 -149 -363 -377 l-381
-377 413 -413 413 -413 402 402 c277 277 403 397 403 383 0 -11 0 -278 0 -592
l0 -573 22 -5 c13 -3 277 -4 588 -3 l565 3 0 573 c0 314 1 572 2 572 2 0 183
-179 404 -398 220 -218 404 -398 408 -400 10 -4 821 798 821 812 0 7 -783 811
-790 811 0 0 251 0 557 0 l558 0 3 583 2 582 -595 0 -595 0 415 413 415 412
-413 417 -414 416 -404 -404 c-222 -222 -406 -404 -409 -404 -3 0 -5 244 -5
542 l0 543 -576 3 c-316 1 -579 -1 -582 -5z"/>
</g>
</svg>
